<?xml version="1.0" encoding="UTF-8"?>
<svg id="Capa_1" data-name="Capa 1" xmlns="http://www.w3.org/2000/svg" width="40" height="40" xmlns:xlink="http://www.w3.org/1999/xlink" viewBox="0 0 40 40">
  <defs>
    <clipPath id="clippath">
      <rect width="40" height="40" fill="none"/>
    </clipPath>
  </defs>
  <g clip-path="url(#clippath)">
    <g id="Group_825" data-name="Group 825">
      <path id="Path_1034" data-name="Path 1034" d="M11.76,5.66c1-.15,2.01.24,2.63,1.04,1.03,1.49,1.95,3.06,2.74,4.69.29.7.32,1.49.08,2.21-.56,1.65-2.75,1.46-2.32,3.57.49.89,1.09,1.71,1.79,2.45.9,1.04,1.86,2.03,2.88,2.97.67.62,2.7,2.45,3.49,2.52,1.92.17,1.69-1.67,3.2-2.29.77-.3,1.63-.28,2.39.06,1.55.76,3.05,1.63,4.48,2.6,2.07,1.53.96,3.73.08,5.62-1.46,3.11-3.7,3.66-6.99,2.98-8.06-1.67-18.8-12.34-20.34-20.45-.37-1.93-.32-4.36,1.22-5.8,1.44-.95,3.01-1.67,4.66-2.15M12.02,7.79c-.94.31-1.86.69-2.75,1.14-2.51,1.29-1.27,5.07-.4,7.1,2.6,6.02,9.59,12.98,15.72,15.34,1.97.76,5.27,1.68,6.47-.65.45-.89.83-1.81,1.14-2.75.08-.41-.04-.53-.34-.77-1.27-.86-2.6-1.63-3.97-2.31-1.06-.46-1.06.29-1.56.93-2.71,3.4-6.14.25-8.36-1.8-1.25-1.16-4.49-4.47-5.02-5.95-.56-1.56-.09-3.29,1.18-4.36.48-.39,1.26-.52,1.1-1.28l-2.43-4.3c-.16-.27-.47-.4-.77-.34" fill="#000095"/>
      <path id="Path_1035" data-name="Path 1035" d="M21.4,6.63c.84-.06,1.69,0,2.52.18,4.67.93,8.32,4.58,9.25,9.25.16.87.62,3.03-.57,3.27-1.58.32-1.32-1.58-1.47-2.56-.62-3.74-3.37-6.77-7.03-7.74-.84-.15-1.68-.25-2.53-.3-.59-.07-1.01-.61-.94-1.2.05-.43.36-.78.77-.9" fill="#000095"/>
      <path id="Path_1036" data-name="Path 1036" d="M21.4,11.59c2.27-.46,5.11,1.51,6.18,3.43.53.96,1.75,4.45-.26,4.34-1.07-.06-.91-1.02-1.05-1.7-.28-2.05-1.89-3.65-3.94-3.94-.43-.09-.76.04-1.2-.22-.5-.3-.65-.95-.35-1.45.14-.23.36-.4.62-.47" fill="#000095"/>
    </g>
  </g>
</svg>