<?xml version="1.0" encoding="UTF-8"?>
<svg id="Capa_1" data-name="Capa 1" xmlns="http://www.w3.org/2000/svg" width="40" height="40" xmlns:xlink="http://www.w3.org/1999/xlink" viewBox="0 0 40 40">
  <defs>
    <clipPath id="clippath">
      <rect width="40" height="40" fill="none"/>
    </clipPath>
  </defs>
  <g clip-path="url(#clippath)">
    <g id="Group_820-2" data-name="Group 820-2">
      <path id="Path_1026" data-name="Path 1026" d="M10.42,22.14c.59-.04,1.18-.14,1.75-.29,2.29-.29,4.61.39,6.39,1.86,2.36.3,6.3-.64,8.32.64,1.13.72,1.26,1.42,1.76,2.52.03.08.05.18.16.19.41-.75.91-1.45,1.39-2.16.63-1.06,1.34-2.07,2.12-3.03,2.8-2.75,7.66.32,5.47,4.62-1.74,3.43-3.4,6.52-7.03,8.17-2.27,1.03-5.11,2.16-7.46,2.99-1.45.56-3.02.78-4.57.63l-8.26-1.79c-.31,1.17-1.3,2.04-2.51,2.19-1.22.09-2.44.09-3.66,0-1.31-.14-2.36-1.16-2.53-2.47.21-4.42-.32-9.17-.01-13.56.06-1.18.84-2.2,1.96-2.57,1.58-.21,3.19-.21,4.77-.02.97.29,1.71,1.08,1.94,2.07M4.46,22.48l-.17.14-.02,13.36c.06.17.17.19.33.21.95.13,2.2-.09,3.18-.02l.17-.14.02-13.36c-.06-.17-.17-.19-.33-.22-.95-.13-2.2.09-3.18.02M10.5,24.73l.03,9.2,8.29,1.85c1.23.14,2.47-.02,3.62-.47,2.3-.79,5.33-1.98,7.52-3.01,3.21-1.51,4.04-4.49,5.81-7.29.31-.51.16-1.17-.35-1.49-.26-.16-.57-.2-.86-.12-.27.09-.5.27-.65.51-1.21,1.47-2.13,3.53-3.33,5.01-.6.76-1.53,1.2-2.5,1.17-3.31.46-6.66.64-9.97,1.11-.69.06-1.3-.46-1.35-1.15-.05-.65.4-1.23,1.05-1.34l8.45-1.02c-.03-.79-.65-1.43-1.44-1.48-2.23-.23-4.81.18-7.08-.02-.46-.08-.88-.62-1.28-.9-1.91-1.36-3.79-1.09-5.94-.55" fill="#000095"/>
      <path id="Path_1027" data-name="Path 1027" d="M11.48,1.28l21.5-.02c1.31.11,2.34,1.15,2.46,2.46-.27,4.06.35,8.55,0,12.56-.12,1.3-1.15,2.34-2.46,2.46H11.7c-1.28-.12-2.3-1.11-2.45-2.38V3.63c.14-1.2,1.05-2.16,2.24-2.36M32.95,6.25v-2.38l-.12-.12H11.85l-.12.12v2.38h21.21ZM32.95,8.75H11.74v7.37l.12.12h20.97l.12-.12v-7.37Z" fill="#000095"/>
      <path id="Path_1028" data-name="Path 1028" d="M25.21,12.5c1.66.15,3.91-.27,5.5,0,.68.15,1.11.82.96,1.5-.11.5-.52.89-1.03.97-1.64.22-3.75-.14-5.43-.01-.68-.14-1.11-.81-.97-1.49.1-.49.48-.87.97-.97" fill="#000095"/>
    </g>
  </g>
</svg>