<?xml version="1.0" encoding="UTF-8"?>
<svg id="Capa_1" data-name="Capa 1" xmlns="http://www.w3.org/2000/svg" width="40" height="40" xmlns:xlink="http://www.w3.org/1999/xlink" viewBox="0 0 40 40">
  <defs>
    <clipPath id="clippath">
      <rect width="40" height="40" fill="none"/>
    </clipPath>
  </defs>
  <g clip-path="url(#clippath)">
    <g id="Group_821-2" data-name="Group 821-2">
      <path id="Path_1029" data-name="Path 1029" d="M29.01,15.49c2.29.02,4.21,1.73,4.49,4-.26,4.16.39,8.83,0,12.94-.24,2.18-1.99,3.89-4.17,4.09H10.66c-2.22-.2-3.97-1.96-4.18-4.18-.34-4.25.16-9.11.12-13.39.5-2.02,2.3-3.44,4.38-3.45-.06-2.85-.18-5.29,1.37-7.78,2.66-4.23,8.23-5.5,12.46-2.84.8.5,1.52,1.13,2.12,1.85,2.16,2.59,2.19,5.53,2.07,8.77M26.01,15.49v-3.71c0-2.71-3.1-5.18-5.67-5.31-2.84-.14-6.34,2.29-6.34,5.31v3.71h12.01ZM10.69,18.52c-.68.14-1.18.73-1.2,1.43-.34,3.88.27,8.27,0,12.2.07.76.69,1.34,1.45,1.36h18.12c.79-.02,1.43-.66,1.45-1.46.34-3.85-.27-8.2,0-12.11-.02-.79-.66-1.43-1.45-1.45l-18.37.03Z" fill="#000095"/>
    </g>
  </g>
</svg>